<svg width="596" height="343" viewBox="0 0 596 343" fill="none" xmlns="http://www.w3.org/2000/svg">
<path fill-rule="evenodd" clip-rule="evenodd" d="M341.987 242.143L341.904 248.098C341.929 249.558 341.971 250.464 342.029 250.819C342.069 251.067 342.154 251.373 342.278 251.732L342.612 252.624L344.327 256.934L348.053 257.524L350.934 257.832L353.216 258.238L356.476 258.61L357.395 258.755L362.102 259.636C368.128 260.767 373.3 261.924 377.619 263.106C381.487 264.166 384.873 265.15 387.776 266.054C390.548 266.92 393.153 267.799 395.593 268.695C398.151 269.631 400.787 270.685 403.501 271.852L412.219 275.604L414.125 276.5L415.57 277.24L419.205 223.282C415.242 224.768 412.119 225.78 409.835 226.316C396.298 229.495 384.056 228.796 373.109 224.219C360.492 218.942 351.014 209.525 344.678 195.966L344.449 195.476L344.574 201.322C344.623 203.573 344.623 205.242 344.571 206.333C344.529 207.269 344.436 208.124 344.295 208.896C344.131 209.796 343.826 210.957 343.38 212.381L341.158 218.895L340.718 220.623C340.326 221.797 340.101 223.808 340.036 226.658C339.974 229.51 340.11 231.779 340.446 233.47L340.945 235.982L341.308 239.056L341.918 241.62L341.987 242.143ZM485.217 185.077L486.118 184.669C488.881 183.284 491.497 180.966 493.966 177.721L494.022 177.648C493.356 177.697 492.786 177.789 492.312 177.928C491.74 178.093 491.101 178.388 490.393 178.809C489.647 179.254 488.857 179.882 488.024 180.697C487.265 181.439 486.706 182.097 486.35 182.674C485.838 183.602 485.459 184.402 485.217 185.077ZM301.623 212.548C301.636 212.918 301.572 213.566 301.425 214.491L295.171 254.184C295.028 254.678 294.988 255.001 295.051 255.155C295.1 255.279 295.233 255.364 295.451 255.409C295.719 255.467 296.309 255.493 297.219 255.486L301.97 255.458L302.631 255.431C302.823 255.409 303.146 255.322 303.595 255.172L305.285 254.541L318.59 250.558C318.997 250.415 319.572 250.156 320.313 249.784C321.865 249.002 323.056 248.192 323.893 247.347C324.706 246.53 325.227 245.635 325.463 244.662C325.703 243.661 325.65 242.518 325.307 241.233L323.742 236.052L323.165 226.87L322.025 218.72C321.901 217.149 321.852 215.879 321.876 214.906C321.896 214.042 321.981 213.185 322.128 212.334C322.292 211.376 322.586 210.138 323.014 208.623L325.469 200.605C325.614 198.974 325.716 197.535 325.781 196.287C325.837 195.177 325.87 193.926 325.883 192.532L325.939 185.849C325.897 185.849 325.859 185.826 325.826 185.781C325.792 185.734 325.772 185.678 325.763 185.612L325.696 185.041L325.396 184.507L325.334 184.44L325.104 184.419C324.801 184.415 324.65 184.539 324.648 184.791L324.668 185.682L324.641 185.796C324.621 185.821 324.543 185.839 324.403 185.849C324.396 186.005 324.236 186.236 323.924 186.54C323.837 186.623 323.711 186.822 323.544 187.13C323.321 187.504 323.005 187.521 322.595 187.179L321.217 185.864L321.78 179.294C321.831 178.89 321.9 178.533 321.99 178.219L322.214 177.52L322.419 176.981L320.959 178.933C319.977 180.246 318.839 181.422 317.55 182.461L317.481 182.514C316.41 183.378 314.58 184.483 311.993 185.832C309.553 187.104 307.057 188.28 304.506 189.358C303.081 189.96 301.534 190.548 299.866 191.121L299.508 193.899C299.397 195.023 299.332 196.039 299.31 196.945C299.287 197.852 299.316 198.465 299.392 198.786C299.584 199.483 299.686 199.904 299.702 200.047C299.713 200.148 299.706 200.255 299.684 200.368C299.65 200.526 299.495 201.033 299.218 201.886L297.767 210.297C297.678 210.816 297.627 211.171 297.615 211.355C297.6 211.62 297.667 211.883 297.82 212.146C298.21 212.817 298.611 212.95 299.025 212.541C299.655 211.921 300.151 211.616 300.512 211.624C300.955 211.635 301.256 211.716 301.407 211.87C301.541 212.001 301.612 212.227 301.623 212.548ZM6.22859 190.29L6.331 190.074L2.42153 166.259C1.50873 160.658 1.04565 157.515 1.03674 156.831C1.01893 155.488 0.981082 154.156 0.92765 152.837L0.807427 149.917L0.422268 145.806C0.115032 142.537 -0.0252281 138.289 0.00371442 133.061C0.0282043 128.02 0.208539 124.133 0.544717 121.401L0.802974 116.124L2.16105 105.326C3.04713 101.629 4.75252 99.3737 7.28388 98.557C8.37256 98.2064 9.05828 97.9969 9.3388 97.9306C9.84641 97.8087 10.3451 97.7596 10.8327 97.7788C11.1956 97.7959 11.7344 97.8878 12.449 98.0589L13.5844 98.0931C14.5685 97.9499 15.6906 98.5421 16.9529 99.8697L17.4895 100.686C17.9147 101.636 18.0995 102.51 18.0483 103.308L17.8635 104.21L17.1177 115.622L16.6034 120.011C16.4943 120.941 16.4052 123.312 16.3384 127.122C16.2694 131.002 16.2717 133.698 16.3473 135.21L16.4542 142.562L20.6353 168.577C23.7789 188.145 25.6335 198.442 26.1989 199.468L28.1381 197.815L29.2535 196.462L29.7656 195.701L32.1923 191.562C35.445 186.016 37.8517 181.518 39.4123 178.065C40.1648 176.402 40.6791 175.226 40.9596 174.533L48.5849 154.094C51.0606 147.454 53.0843 142.263 54.6562 138.517C56.1857 134.872 57.5059 132.084 58.619 130.149C59.5697 128.499 60.5181 127.223 61.4621 126.32C62.0632 125.745 62.6955 125.294 63.3545 124.967C64.8662 124.219 66.6495 123.862 68.7066 123.894C69.9667 123.915 72.8677 125.213 77.4072 127.791L76.1827 127.096C76.9998 127.56 77.425 127.956 77.4562 128.285L77.5452 128.422C77.9616 129.134 78.2198 129.933 78.3222 130.823L79.0725 140.236L79.6825 153.938L79.7159 157.43L79.6091 162.353C79.5089 167.008 79.4688 169.922 79.4866 171.095C79.5089 172.555 79.6135 174.8 79.8028 177.828L80.4284 187.861L81.5104 199.438L81.9022 201.747L83.0911 210.634L84.6273 217.647L84.8321 219.013L85.3931 220.604C86.8469 226.25 88.5813 230.868 90.5939 234.46L90.861 234.939L91.2618 234.383C93.3746 230.581 97.0859 220.435 102.394 203.936L110.529 178.646C111.343 175.882 112.528 172.267 114.082 167.796C115.631 163.345 117.096 159.347 118.481 155.805L125.73 137.252C126.342 135.687 126.888 134.357 127.371 133.262L131.69 123.466L140.451 105.914C144.091 98.6233 148.935 90.4777 154.989 81.4749C161.042 72.4741 166.771 64.893 172.174 58.7357L175.16 55.3321C176.315 53.8847 177.217 52.8692 177.86 52.2855L178.345 51.8986C179.265 51.2828 180.269 50.9108 181.358 50.7826C181.743 50.7377 182.228 50.7099 182.812 50.6992L184.597 50.6628L188.126 50.665C189.511 50.6671 190.664 50.8531 191.59 51.223C192.267 51.4966 192.855 51.8686 193.351 52.3411C193.816 52.7858 194.181 53.2946 194.446 53.8719C194.709 54.4427 194.856 55.0456 194.889 55.6806L194.927 56.446C194.954 56.989 194.803 57.4765 194.466 57.9062L173.073 85.3916L174.302 87.087C175.186 88.8636 175.747 90.5483 175.981 92.1453C176.155 93.3148 176.197 94.7429 176.11 96.4298C176.019 98.1872 175.732 101.131 175.249 105.268L174.792 109.151L174.269 112.124C174.055 114.294 173.198 118.412 171.691 124.475L166.802 144.168C166.501 145.38 166.214 146.462 165.938 147.413C165.595 148.602 164.996 150.55 164.139 153.256C163.747 154.49 163.342 155.862 162.919 157.372C162.501 158.868 162.175 160.111 161.944 161.096L161.862 161.449C163.342 160.525 165.203 159.674 167.443 158.898C170.967 157.678 173.844 157.19 176.077 157.436C178.477 157.772 180.516 158.49 182.195 159.587C183.557 160.478 184.655 161.601 185.483 162.954C185.753 163.394 185.977 163.905 186.158 164.493C186.619 165.996 186.973 168.737 187.22 172.72L187.382 175.324H187.787C189.457 175.286 191.225 174.649 193.086 173.411C194.843 172.243 195.931 171.061 196.357 169.862L197.456 166.755C197.632 166.298 197.822 165.9 198.024 165.562C198.276 165.148 198.71 164.604 199.327 163.935C199.941 163.305 200.406 162.871 200.727 162.631C201.052 162.39 201.424 162.169 201.842 161.973L203.879 161.088L203.601 160.887C202.951 160.391 202.423 159.781 202.02 159.057C201.555 158.225 201.279 157.288 201.188 156.243C201.128 155.319 201.264 154.419 201.597 153.541C201.963 152.585 202.548 151.696 203.356 150.875C204.071 150.146 204.855 149.577 205.707 149.169C206.518 148.782 207.364 148.549 208.252 148.467L209.194 148.433C209.334 148.142 209.503 147.864 209.704 147.604L209.926 147.332L209.882 147.304C207.05 145.489 204.594 143.68 202.519 141.885C200.5 140.136 198.721 138.295 197.18 136.362C195.597 134.372 194.173 132.165 192.906 129.739C191.684 127.4 190.82 124.873 190.312 122.158L189.882 120.341C189.143 117.232 189.266 114.025 190.248 110.718L190.597 109.014C191.009 107.224 192.091 104.832 193.845 101.834C195.6 98.8371 197.249 96.5623 198.797 95.008C199.313 94.4885 199.865 93.9925 200.455 93.5222L196.127 87.878L194.749 85.6182L194.489 85.1478L193.6 83.3156C192.91 81.8896 192.387 80.5427 192.031 79.2728C191.695 78.0713 191.468 76.8035 191.35 75.4715C191.225 74.0648 191.214 72.4185 191.312 70.5307L191.439 68.102L191.523 67.5547L192.124 65.2479C193.367 60.4717 195.931 56.059 199.823 52.0055C203.712 47.9519 208.517 44.6809 214.234 42.1923C216.659 41.1362 219.292 40.2532 222.131 39.5477C223.407 39.1992 224.333 38.964 224.914 38.84C225.379 38.7417 225.896 38.6519 226.466 38.5728L230.482 38.1088L232.904 37.7219C233.819 37.5743 234.866 37.5572 236.046 37.6705L240.454 34.6988L241.309 34.1814L241.877 33.8843L244.314 32.6891C251.595 29.1188 259.676 26.581 268.562 25.0695L274.976 23.9813L276.2 23.8445L276.997 23.806L285.228 23.6456L286.119 23.5986L289.013 23.2822L292.931 17.1826C293.205 16.7764 293.446 16.4515 293.648 16.212C293.938 15.8721 294.706 15.1024 295.952 13.903C296.923 12.9688 297.551 12.3851 297.836 12.1521L298.657 11.5449L303.912 8.01942L305.21 7.18135L305.753 6.90342L309.168 5.33417C314.151 3.04657 319.042 1.57139 323.844 0.908626L327.996 0.679866L328.377 0.626417L330.877 0.211656C331.694 0.0769659 332.215 0.00641383 332.44 0L333.077 0.038483L337.543 0.647797L339.938 0.784625L340.508 0.840212L347.178 2.21063L348.02 2.42015L350.747 3.33305C353.789 4.34644 356.302 5.33631 358.288 6.29624C360.111 7.17921 361.832 8.19687 363.451 9.35136C365.216 10.6063 367.213 12.2825 369.446 14.3734C370.437 15.3034 371.292 16.2227 372.013 17.1313C372.675 17.963 373.347 18.9443 374.035 20.0753C374.785 21.311 375.711 22.9893 376.813 25.1101L377.902 27.2053L380.131 27.216L380.536 27.2609L381.82 27.6286L386.816 28.8665L392.752 30.6709C395.163 31.3572 397.99 31.5389 401.236 31.2182C403.013 31.0429 404.402 30.9446 405.402 30.9189C406.244 30.8997 407.156 30.9211 408.136 30.9873C409.3 31.0622 411.142 31.2396 413.664 31.5197L415.57 31.6715L422.937 33.0269L423.89 33.2322C424.308 33.322 424.753 33.4438 425.225 33.5978L431.657 35.7079C433.403 36.2788 435.478 37.181 437.887 38.4103C440.296 39.6396 442.264 40.8026 443.791 41.8951L446.411 43.7722L446.997 44.2105L447.781 44.8711L451.365 48.2812C453.605 50.4106 455.662 52.9419 457.541 55.8751C459.42 58.8084 460.718 61.5086 461.435 63.9801C461.769 65.1346 462.027 66.3831 462.209 67.7236L462.292 68.3265L462.341 68.5424L462.666 69.7996C463.294 72.2304 463.182 75.3561 462.332 79.1766L461.043 84.9811L460.531 86.5418C463.55 91.6451 465.941 97.0113 467.704 102.638L471.079 114.551L472.397 121.153L472.6 123.28C473.448 128.469 473.666 135.124 473.25 143.251L472.455 150.543C471.934 155.326 471.073 159.741 469.868 163.79C465.959 176.96 460.44 187.996 453.311 196.898L449.55 201.595L448.978 202.341L448.934 202.408L448.687 212.593C448.658 213.065 448.573 213.707 448.435 214.517C448.152 216.187 447.968 217.585 447.883 218.707L446.151 228.061L443.099 241.846L434.251 273.49C436.535 271.765 438.904 270.537 441.362 269.808C443.887 269.06 446.467 268.846 449.103 269.167C451.614 269.471 453.627 270.073 455.141 270.974C456.871 272.004 458.133 273.464 458.93 275.356C459.607 276.964 459.979 279.064 460.048 281.653L460.172 286.476L460.184 286.696L460.573 286.692C462.143 286.675 463.187 286.617 463.706 286.523C463.937 286.48 464.178 286.397 464.429 286.275C464.99 286.003 466.054 285.343 467.622 284.295L470.879 282.121L471.591 281.693C471.919 281.516 472.533 281.231 473.43 280.844L475.764 279.837C479.043 278.424 480.37 279.474 479.751 282.989L479.308 285.49C479.107 286.632 478.794 287.744 478.368 288.825C477.965 289.852 477.346 290.829 476.509 291.759C475.162 293.255 473.183 294.681 470.572 296.039C466.88 297.957 463.136 299.113 459.333 299.511L453.712 300.099C453.215 300.15 452.756 300.045 452.333 299.782C451.258 299.115 450.161 298.384 449.038 297.585C448.014 296.855 447.291 296.291 446.868 295.891C445.926 294.998 445.176 293.897 444.615 292.582C444.187 291.577 443.831 290.345 443.546 288.89C443.306 287.65 443.083 286.07 442.88 284.15L442.435 284.695C441.447 285.911 440.287 287.577 438.96 289.691L438.432 290.531L442.025 293.097C445.973 295.917 448.838 298.087 450.619 299.605L455.219 303.528C455.522 303.8 455.755 304.035 455.92 304.227C456.154 304.503 456.648 305.217 457.403 306.367L456.728 305.957L454.972 304.988L454.558 304.821L452.727 304.351L451.245 304.026L451.007 303.964L450.414 303.752C448.181 302.953 445.979 302.235 443.809 301.6L433.708 298.645L431.493 302.598C431.094 303.267 430.733 303.793 430.411 304.176C429.836 304.86 429.101 305.433 428.206 305.899C426.851 306.605 425.292 306.955 423.531 306.955C421.901 306.953 420.35 306.649 418.876 306.04C417.418 305.439 416.34 304.789 415.641 304.095C415.165 303.618 414.799 303.088 414.55 302.504C414.189 301.657 414.038 300.586 414.1 299.291C414.12 298.835 414.172 298.2 414.249 297.386L414.278 297.071C409.307 299.658 403.926 301.677 398.135 303.124L393.76 303.96C385.487 305.538 378.178 304.67 371.835 301.356C370.687 300.757 369.954 300.357 369.633 300.154L369.097 299.787C366.721 302.055 364.255 303.782 361.697 304.967C358.435 306.481 355.182 307.105 351.943 306.844C349.897 306.679 348.118 306.175 346.606 305.335C345.322 304.618 344.258 303.68 343.411 302.517C342.485 301.178 341.971 299.331 341.866 296.973C341.782 295.015 341.975 293.15 342.447 291.38L342.65 290.628L341.274 291.996L340.669 292.571L339.607 293.413C332.502 298.835 325.977 301.647 320.03 301.845C317.564 301.929 315.259 301.441 313.118 300.383C311.227 299.449 309.829 298.258 308.921 296.808C307.149 297.884 305.372 298.538 303.589 298.769C299.414 299.312 295.819 298.944 292.804 297.67C290.433 296.665 288.476 295.137 286.936 293.082L285.943 291.756C285.07 292.238 284.099 292.719 283.028 293.197C281.143 294.042 279.404 294.677 277.81 295.104L269.196 296.471C268.695 296.552 268.225 296.466 267.782 296.221C264.581 294.51 262.319 292.913 261.003 291.425C260.371 290.713 259.839 289.86 259.4 288.864C258.701 287.271 258.222 285.236 257.966 282.756L257.759 280.757L256.112 282.818C254.591 284.855 253.231 287.03 252.029 289.343C250.37 292.528 249.186 294.747 248.473 295.998C247.803 297.174 247.209 298.106 246.688 298.795C245.966 299.746 245.094 300.623 244.067 301.422C242.754 302.406 241.338 303.008 239.819 303.231C238.285 303.457 236.736 303.282 235.169 302.707C233.779 302.153 232.729 301.565 232.018 300.941C231.678 300.642 231.375 300.313 231.112 299.956L230.916 300.176C228.291 303.124 226.041 305.553 224.162 307.466C222.38 309.279 220.662 310.908 219.005 312.351C217.222 313.903 215.236 315.481 213.045 317.083C209.719 319.516 207.105 321.388 205.204 322.703C203.421 323.935 201.891 324.935 200.611 325.707C199.157 326.584 197.721 327.343 196.31 327.984L193.792 329.128C187.718 332.179 180.552 334.999 172.288 337.588L168.514 338.77C164.137 340.66 160.441 341.739 157.427 342.011L153.983 342.321C142.466 343.709 131.574 341.4 121.309 335.4C105.143 325.949 95.8191 315.402 93.3412 303.761C92.9627 301.989 92.72 300.599 92.6132 299.592C92.5152 298.692 92.4774 297.73 92.4996 296.708C92.5241 295.611 92.6377 293.858 92.8425 291.453L93.261 286.546L93.7241 283.816C94.5457 276.066 96.015 268.962 98.1345 262.503C99.2343 259.151 100.025 256.878 100.508 255.681C100.897 254.717 101.381 253.678 101.955 252.564C102.656 251.21 104.31 248.215 106.92 243.576C111.969 234.599 117.533 226.577 123.611 219.513C131.258 210.624 138.672 203.53 145.85 198.234L149.915 195.235L147.261 195.147C146.685 195.128 146.19 194.914 145.778 194.506C145.182 193.946 144.625 193.358 144.109 192.742C143.174 191.624 142.57 190.574 142.301 189.591C142.129 188.968 142.034 188.182 142.011 187.235C141.991 186.343 142.027 184.019 142.121 180.259L143.986 139.779L141.88 144.799C139.142 151.317 135.891 159.717 132.126 169.994L111.697 229.978C111.217 231.385 110.796 232.521 110.433 233.384C109.968 234.494 109.228 236.04 108.211 238.028C106.855 240.681 105.573 242.832 104.366 244.478C103.084 246.231 101.737 247.625 100.323 248.658C98.7223 249.831 96.9368 250.627 94.9664 251.044C90.9768 251.886 87.2967 251.461 83.9237 249.763C79.638 247.606 76.0848 243.454 73.2662 237.307C72.1174 234.8 70.8595 231.415 69.4925 227.154C68.1167 222.861 67.235 219.545 66.8476 217.204L65.1044 206.624L64.205 202.532L63.8844 198.07L63.2922 193.704L62.4662 183.177L61.7983 175.393C61.7515 174.858 61.8962 174.448 62.2324 174.165L61.9697 164.235L55.4242 180.483L51.7508 190.091L51.5927 190.144L50.4372 192.25C48.4246 195.919 46.579 198.944 44.9047 201.326C43.2238 203.714 41.5407 205.702 39.8509 207.289C38.0008 209.029 35.9815 210.444 33.7953 211.532C30.104 213.369 26.386 213.972 22.6412 213.337C19.8583 212.866 17.396 211.778 15.2498 210.074C12.7473 208.088 10.7592 205.317 9.28537 201.766L7.24603 196.261L7.22599 196.171L6.22859 190.29ZM309.175 291.333C310.027 290.619 310.613 290.352 310.933 290.527L311.579 292.169C311.811 292.759 312.009 293.304 312.171 293.807C312.552 294.904 313.494 295.825 315.001 296.569C316.511 297.313 318.142 297.659 319.901 297.604C322.19 297.531 324.886 296.808 327.987 295.434C331.089 294.059 334.092 292.265 336.995 290.053C337.44 289.715 337.734 289.482 337.877 289.356L338.309 288.945L341.174 286.093C341.535 285.734 341.904 285.486 342.283 285.349C342.619 285.227 343.049 285.159 343.572 285.146C344.16 285.131 345.039 285.18 346.214 285.298C347.072 285.358 347.57 285.409 347.715 285.454C347.817 285.486 347.884 285.544 347.915 285.627C347.958 285.742 347.969 286.134 347.949 286.801L347.909 287.124L347.864 287.273L347.519 288.252L347.107 290.442L346.56 292.486C346.199 293.826 346.052 295.258 346.119 296.785C346.186 298.311 346.442 299.402 346.885 300.056C347.989 301.553 349.79 302.401 352.286 302.604C354.781 302.805 357.322 302.307 359.907 301.108C362.353 299.975 364.74 298.209 367.062 295.812L368.868 293.95L370.951 295.804L371.397 296.182C371.579 296.334 371.751 296.46 371.907 296.558C372.129 296.699 372.761 297.041 373.806 297.587C379.274 300.441 385.659 301.172 392.966 299.78L397.218 298.968C404.015 297.257 410.198 294.72 415.77 291.357L419.406 289.163L418.495 297.803C418.417 298.538 418.368 299.1 418.35 299.492C418.319 300.137 418.357 300.584 418.464 300.832C418.613 301.183 419.29 301.612 420.497 302.123C421.454 302.508 422.467 302.701 423.533 302.701C424.6 302.701 425.504 302.51 426.241 302.126C426.639 301.918 426.944 301.689 427.156 301.437C427.32 301.243 427.541 300.915 427.815 300.458L430.192 296.214C432.176 292.674 433.897 289.745 435.355 287.425C436.773 285.169 438.029 283.367 439.12 282.016C440.244 280.626 441.26 279.634 442.17 279.04L443.31 278.375L443.657 278.223L445.516 277.575L447.055 283.151C447.262 285.204 447.484 286.846 447.725 288.079C447.95 289.24 448.219 290.185 448.529 290.912C448.858 291.686 449.281 292.315 449.795 292.802C450.074 293.067 450.646 293.505 451.507 294.121C452.371 294.735 453.204 295.295 454.008 295.801L458.894 295.331C462.156 294.957 465.395 293.933 468.61 292.263C471.823 290.593 473.758 288.928 474.408 287.271C474.728 286.454 474.966 285.614 475.118 284.75C474.361 285.078 473.882 285.294 473.686 285.398L473.154 285.717L469.986 287.833C468.258 288.986 467.027 289.743 466.288 290.102C465.689 290.393 465.086 290.593 464.474 290.707C463.719 290.844 462.434 290.925 460.622 290.946L457.57 290.983C456.759 289.783 456.292 289.018 456.167 288.68C456.078 288.445 456.018 288.126 455.982 287.726L455.925 286.722L455.793 281.759C455.738 279.703 455.477 278.119 455.009 277.007C454.573 275.974 453.892 275.181 452.966 274.629C451.966 274.035 450.508 273.622 448.589 273.389C446.563 273.144 444.394 273.407 442.086 274.178C439.775 274.95 437.702 276.105 435.87 277.64C435.113 278.275 434.632 278.687 434.429 278.878L433.873 279.444L430.48 283.106L426.519 286.422L426.276 286.583L428.574 280.387L428.678 279.887L428.955 277.702C429.081 276.703 429.186 276.013 429.271 275.628L429.596 274.358L438.969 240.814L441.979 227.214L443.66 218.145L443.798 216.539L443.858 216.09L444.243 213.805C444.35 213.159 444.414 212.68 444.437 212.373L444.637 203.327C444.664 202.076 444.742 201.281 444.866 200.943C444.955 200.704 445.138 200.389 445.418 200.002L446.158 199.025L449.987 194.236C452.418 191.194 454.575 188.079 456.459 184.891C458.296 181.783 459.963 178.446 461.461 174.877C463 171.215 464.442 167.117 465.789 162.58C466.918 158.776 467.731 154.61 468.225 150.081L469.007 142.913C469.153 139.96 469.229 137.399 469.234 135.227C469.238 133.149 469.176 131.235 469.049 129.48C468.915 127.646 468.697 125.809 468.394 123.971L468.183 121.777L466.938 115.549L463.625 103.853C461.633 97.5094 458.792 91.5146 455.105 85.8705C451.416 80.2263 447.351 75.6511 442.909 72.147C437.221 67.6595 431.51 64.4269 425.778 62.4472C418.856 60.0569 412.606 58.7656 407.029 58.5775C403.937 58.4727 401.423 58.4385 399.487 58.4791C397.71 58.5155 396.085 58.6203 394.611 58.7913C393.006 58.9773 391.256 59.2809 389.363 59.7042L386.738 60.1596C385.443 60.4097 383.593 60.9463 381.19 61.7716C378.786 62.599 376.889 63.3494 375.495 64.0228L372.592 65.4275C369.406 66.9689 366.156 69.4596 362.841 72.8974C360.494 75.3304 358.299 78.2573 356.255 81.678C354.314 84.9276 353.121 89.4558 352.675 95.2624C352.522 97.2507 352.789 99.8291 353.472 102.993C354.158 106.16 355.013 108.768 356.039 110.818C357.115 112.965 357.722 114.397 357.865 115.115C357.974 115.671 357.925 116.225 357.718 116.781C357.449 117.499 356.587 118.929 355.135 121.076C352.631 124.77 350.596 128.187 349.029 131.325C347.546 134.295 346.31 137.356 345.322 140.51C344.278 143.841 343.385 147.676 342.643 152.021C341.998 155.798 341.677 159.794 341.684 164.004C341.691 168.215 342.02 171.929 342.675 175.149L343.013 177.351C343.3 179.23 344.015 181.911 345.159 185.396C346.304 188.883 347.428 191.806 348.53 194.166C354.405 206.733 363.146 215.44 374.75 220.294C378.385 221.814 381.974 222.878 385.516 223.492C388.967 224.088 392.558 224.285 396.29 224.086C400.121 223.881 404.311 223.244 408.862 222.175C411.694 221.51 416.013 220.022 421.817 217.707C422.106 217.604 422.507 217.499 423.015 217.395C423.524 217.288 423.812 217.251 423.874 217.279L419.243 286.033L414.917 288.346C411.814 290.008 408.038 291.519 403.59 292.879C399.141 294.241 395.036 295.141 391.276 295.579C389.256 295.814 387.743 295.951 386.738 295.987C385.87 296.02 385.082 295.99 384.376 295.9C383.561 295.797 382.544 295.562 381.324 295.196C379.305 294.591 378.022 293.486 377.475 291.885C376.927 290.281 377.165 288.338 378.187 286.05C379.102 284.006 380.505 282.315 382.393 280.979C384.281 279.645 386.262 278.942 388.337 278.869C389.628 278.824 390.43 278.816 390.744 278.837C390.966 278.854 391.231 278.897 391.541 278.967L392.298 279.141L395.891 280.056C396.695 280.239 397.441 280.227 398.124 280.019C398.81 279.812 399.288 279.455 399.56 278.946C399.772 278.548 399.66 278.089 399.226 277.569C398.792 277.052 398.162 276.624 397.336 276.291C395.653 275.651 393.424 275.301 390.657 275.241C387.887 275.181 385.331 275.425 382.985 275.976C376.94 277.396 372.701 280.556 370.268 285.456C369.315 287.374 368.522 288.847 367.892 289.873C367.331 290.786 366.75 291.594 366.147 292.297C365.468 293.091 364.553 293.986 363.406 294.987C361.053 297.035 358.94 298.14 357.063 298.303C356.059 298.388 355.04 298.371 354.002 298.249L355.512 282.965L353.862 282.168C353.74 282.114 353.619 282.076 353.504 282.048C353.339 282.01 352.851 281.931 352.041 281.813C351.112 281.704 350.03 281.689 348.793 281.77C347.555 281.851 346.433 282.01 345.429 282.247C345.026 282.33 344.632 282.262 344.246 282.042C343.859 281.821 343.636 281.537 343.576 281.191C343.525 280.894 343.516 280.682 343.552 280.556C343.576 280.462 343.639 280.329 343.739 280.16C343.872 279.934 344.284 279.297 344.974 278.249C345.747 277.005 345.847 275.91 345.27 274.963C344.87 274.304 344.037 273.894 342.768 273.731C341.501 273.569 340.377 273.729 339.395 274.21C336.018 275.959 334.871 278.559 335.958 282.005C336.191 282.692 336.343 283.1 336.407 283.233C336.454 283.329 336.516 283.423 336.597 283.517C336.708 283.649 337.1 284.058 337.774 284.74L338.318 285.255L333.6 289.052C331.973 290.119 330.354 291.021 328.744 291.759C327.132 292.498 325.901 292.902 325.046 292.975C324.459 293.024 324.096 293.048 323.958 293.046L323.619 293.009L319.601 292.233C319.5 292.146 319.445 292.077 319.436 292.026L319.44 291.84L319.663 290.427L321.05 269.68C319.661 270.518 318.256 271.07 316.838 271.337L316.664 271.371C315.725 271.525 315.039 271.688 314.611 271.859C314.242 272.006 313.926 272.209 313.661 272.47C313.351 272.772 312.986 273.285 312.565 274.005L308.928 282.127C307.006 286.418 304.811 289.189 302.344 290.442C301.674 290.782 300.988 291.107 300.287 291.414L298.731 290.478C298.624 290.405 298.535 290.333 298.464 290.262C298.366 290.159 298.116 289.847 297.722 289.326C297.108 288.468 296.703 287.69 296.509 286.995C296.346 286.414 296.253 285.644 296.226 284.684C296.193 283.536 296.251 281.473 296.395 278.493L296.458 273.708L294.125 273.554L293.682 273.56C293.499 273.573 292.996 273.644 292.174 273.768C290.264 274.146 288.955 275.998 288.247 279.322C287.755 281.644 285.533 283.795 281.584 285.772C277.903 287.617 274.936 288.034 272.687 287.027C271.955 286.658 271.485 286.307 271.28 285.973C271.117 285.71 271.006 285.311 270.946 284.774C270.868 284.098 270.826 282.613 270.815 280.319L270.779 272.917L266.36 270.42C264.369 269.729 262.183 269.565 259.803 269.924C257.421 270.285 255.17 271.123 253.048 272.436C252.089 273.03 251.356 273.535 250.851 273.95C250.439 274.289 249.967 274.734 249.437 275.286C248.785 275.964 247.614 277.259 245.917 279.173L242.745 281.646L242.355 281.862L243.546 277.593C243.903 273.954 245.305 267.976 247.752 259.655L254.939 233.021C255.121 231.787 255.357 230.714 255.642 229.801L256.054 227.231L257.541 219.836C258.294 216.088 258.812 213.07 259.097 210.78C259.358 208.667 259.469 206.799 259.429 205.17C259.387 203.404 259.155 201.589 258.735 199.722C258.568 198.976 258.458 198.525 258.407 198.367L258.263 197.999L257.321 196.171L255.998 193.435L252.084 193.351C251.813 193.351 251.581 193.364 251.39 193.383C251.118 193.413 250.415 193.537 249.284 193.755C247.886 194.055 246.527 194.968 245.207 196.494C243.885 198.018 242.867 199.848 242.157 201.986L241.242 204.732L241.048 205.349L240.828 206.192L239.457 212.935L239.383 213.373L239.234 215.141L239.169 215.53L238.671 218.139L237.081 230.932L236.498 242.235L236.052 246.099L234.997 276.04C234.915 278.396 234.665 280.19 234.249 281.422C233.906 282.444 233.307 283.557 232.457 284.765C231.428 286.223 229.402 288.671 226.377 292.107C224.803 293.897 222.116 296.605 218.317 300.236C216.583 301.892 214.987 303.378 213.531 304.691C212.075 306.006 210.988 306.938 210.271 307.485L204.209 312.129L202.401 313.437C201.348 314.198 200.304 314.883 199.269 315.492L197.537 316.512L191.744 319.635C189.168 321.027 186.679 322.263 184.279 323.345C182.019 324.362 179.554 325.378 176.883 326.389C174.046 327.467 170.596 328.683 166.526 330.045C164.498 330.723 162.351 331.355 160.085 331.946C157.819 332.536 156.269 332.863 155.436 332.929C148.441 333.481 141.947 332.66 135.956 330.47C128.157 327.618 120.961 323.165 114.367 317.106C112.637 315.515 111.217 314.019 110.11 312.614C109.057 311.274 108.178 309.884 107.474 308.443C106.737 306.929 106.114 305.2 105.608 303.254C105.012 300.954 104.767 297.446 104.874 292.725C104.981 288.002 105.395 284.062 106.116 280.9L108.244 272.549L110.809 264.97L113.737 258.05C113.859 257.787 114.102 257.306 114.469 256.609L118.439 249.049L123.105 241.13L123.548 240.435C123.764 240.095 124.067 239.655 124.457 239.116L130.267 231.054C131.69 229.078 133.692 226.618 136.267 223.665C138.843 220.715 141.174 218.216 143.258 216.167L150.843 208.712L155.194 205.084C158.382 202.427 162.071 199.825 166.261 197.279C170.451 194.73 174.412 192.684 178.138 191.139L181.607 189.7C188.063 187.023 193.676 185.691 198.443 185.706C200.533 185.712 202.201 185.903 203.439 186.277C204.607 186.632 205.543 187.194 206.242 187.962C206.983 188.774 207.555 189.926 207.958 191.419C208.221 192.393 208.368 192.986 208.399 193.199C208.419 193.349 208.423 193.518 208.412 193.706C208.397 193.971 208.29 194.841 208.096 196.314C207.709 199.267 207.288 201.574 206.836 203.239C206.455 204.642 205.905 206.166 205.189 207.812C204.336 209.766 202.802 212.877 200.587 217.147C199.536 219.171 198.668 220.751 197.982 221.889C197.439 222.789 196.684 223.947 195.72 225.358L188.075 236.574C187.404 237.555 186.997 238.165 186.852 238.402L186.514 239.009L184.815 242.445L189.495 242.793C190.92 242.631 192.051 242.272 192.884 241.716C193.574 241.256 194.38 240.474 195.301 239.368C196.417 238.032 198.369 235.4 201.159 231.473C205.554 225.279 209.169 218.983 211.999 212.582C214.831 206.183 216.416 200.725 216.754 196.212C216.948 193.661 216.779 191.528 216.247 189.807C216.02 189.069 215.748 188.34 215.434 187.619L224.754 181.657C224.974 182.837 225.112 183.534 225.168 183.75C225.208 183.904 225.257 184.045 225.317 184.175C225.402 184.359 225.693 184.885 226.194 185.751C228.256 189.326 231.097 191.301 234.712 191.677C237.043 191.919 239.296 191.835 241.469 191.423C243.553 191.025 245.742 190.294 248.035 189.229C250.424 188.12 253.135 186.546 256.172 184.513L261.277 180.355L262.617 182.828C262.722 183.004 262.827 183.16 262.933 183.294C263.083 183.487 263.548 184.011 264.325 184.868C267.31 188.158 271.799 190.016 277.792 190.442L279.923 190.679C280.363 190.728 280.655 190.754 280.793 190.752L281.209 190.726L283.955 190.424L286.203 190.258C287.795 190.14 290.322 189.58 293.788 188.577C297.253 187.575 300.272 186.529 302.847 185.441C305.294 184.406 307.687 183.279 310.025 182.061C312.363 180.842 313.959 179.889 314.812 179.2L314.879 179.147C315.892 178.332 316.782 177.411 317.55 176.385L298.246 183.365C295.948 184.194 293.225 184.973 290.077 185.697C286.931 186.42 284.553 186.816 282.942 186.884C279.302 187.038 276.345 186.273 274.072 184.59C271.799 182.907 270.917 180.831 271.427 178.362C271.699 177.054 271.89 176.246 272.004 175.938C272.09 175.705 272.202 175.529 272.342 175.412C272.525 175.254 272.99 175.036 273.736 174.755C274.127 174.627 274.433 174.552 274.653 174.525L275.463 174.467L281.557 174.191L285.858 173.806C288.149 173.601 290.124 173.126 291.787 172.38C293.448 171.632 294.461 170.766 294.824 169.778C295.129 168.846 294.848 167.97 293.984 167.147C293.12 166.323 291.802 165.682 290.033 165.222C286.107 164.275 281.726 164.369 276.886 165.507C272.046 166.642 268.432 168.427 266.041 170.858L262.428 175.801C259.783 179.414 254.493 182.922 246.556 186.324C241.006 188.703 237.208 188.757 235.164 186.482C234.465 185.706 233.944 184.729 233.606 183.553C233.274 182.407 233.094 181.011 233.067 179.363C233.038 177.672 233.167 175.621 233.457 173.214L235.585 155.505L235.767 152.236L261.15 152.093C261.437 152.01 261.778 151.847 262.172 151.606C262.566 151.364 262.769 151.193 262.782 151.095C262.791 151.009 262.726 150.934 262.584 150.875C262.441 150.815 262.259 150.783 262.036 150.781C261.831 150.776 261.549 150.642 261.186 150.376C260.872 150.148 260.413 150.015 259.812 149.981C259.389 149.955 258.536 149.942 257.258 149.938L236.487 149.889L236.654 137.237C236.313 135.95 235.113 135.37 233.056 135.499C231.057 135.697 229.883 136.732 229.534 138.603L227.543 149.303L215.94 149.511C215.218 149.523 214.726 149.545 214.461 149.577C214.09 149.62 213.691 149.769 213.266 150.026C212.925 150.233 212.89 150.595 213.154 151.112C213.272 151.315 213.557 151.454 214.014 151.533C214.383 151.597 215.036 151.651 215.969 151.691L226.57 152.16L226.134 164.247L226.074 164.669L225.604 167.362L225.19 173.716C224.916 177.917 222.046 180.93 216.583 182.753C212.68 184.055 210.296 183.333 209.432 180.583C209.185 179.69 209.029 178.944 208.967 178.349C208.913 177.847 208.902 177.253 208.931 176.566C208.967 175.754 209.08 174.405 209.274 172.521C209.43 171.014 209.463 169.827 209.376 168.962C209.294 168.153 209.098 167.504 208.784 167.008C208.446 166.475 207.92 166.039 207.206 165.701L205.781 164.902L203.617 165.84C203.472 165.911 203.356 165.979 203.269 166.043C203.147 166.135 202.862 166.407 202.421 166.858C202.012 167.305 201.762 167.608 201.666 167.764C201.6 167.876 201.526 168.036 201.446 168.248L201.248 168.765L200.366 171.277C199.632 173.366 197.991 175.258 195.444 176.951C192.897 178.646 190.377 179.521 187.881 179.577C186.906 179.598 185.951 179.587 185.018 179.544C184.245 178.674 183.798 178.159 183.675 177.999C183.591 177.888 183.526 177.785 183.486 177.691C183.43 177.556 183.332 177.18 183.194 176.558L182.972 172.983C182.698 168.568 182.324 165.958 181.85 165.156C180.672 163.262 178.57 162.097 175.547 161.658C173.973 161.494 171.738 161.913 168.837 162.918C165.936 163.922 163.896 164.985 162.716 166.103L155.699 173.616L156.042 168.88L156.147 167.829C156.193 167.375 156.265 166.909 156.365 166.435L156.598 165.306L157.803 160.125C158.048 159.08 158.386 157.78 158.82 156.226C159.257 154.672 159.673 153.252 160.072 151.969L161.85 146.233C162.113 145.325 162.387 144.29 162.67 143.133L168.861 117.867C169.202 116.486 169.46 115.316 169.636 114.359C169.825 113.352 169.954 112.471 170.026 111.718L170.58 108.537L171.021 104.772C171.495 100.729 171.773 97.875 171.86 96.2117C171.931 94.8049 171.902 93.6547 171.771 92.7653C171.617 91.7156 171.235 90.5483 170.624 89.2634L167.755 85.2996L190.639 55.8965C190.624 55.625 190.539 55.4197 190.379 55.2829C190.232 55.1568 189.998 55.067 189.678 55.0093C189.33 54.9494 188.812 54.9195 188.121 54.9237L182.909 54.943C182.46 54.958 182.108 54.9793 181.854 55.0093C181.436 55.0584 181.104 55.1632 180.859 55.3257C180.71 55.424 180.543 55.5673 180.358 55.7575C180.189 55.9307 179.973 56.1744 179.715 56.4909L178.488 57.9874L175.371 61.5407C170.088 67.5611 164.471 74.9969 158.52 83.848C152.569 92.6991 147.816 100.686 144.26 107.812L135.537 125.286L131.28 134.938C130.815 135.995 130.285 137.286 129.686 138.814L122.446 157.348C121.082 160.842 119.634 164.79 118.103 169.195C116.569 173.599 115.407 177.15 114.612 179.848L106.443 205.24C100.96 222.288 97.0948 232.769 94.8507 236.679L91.9542 240.7C91.5735 241.111 91.1794 241.515 90.772 241.91C89.7813 240.933 89.1913 240.333 88.9976 240.108C88.864 239.95 88.7282 239.764 88.5968 239.554L88.2874 239.035L86.8915 236.548C84.7208 232.683 82.8662 227.785 81.3211 221.852L80.7935 220.356L80.6777 219.973L80.6421 219.772L80.4395 218.419L78.9278 211.549L77.6944 202.386L77.3093 200.161L76.1916 188.261L75.5571 178.091C75.3634 174.993 75.2543 172.684 75.2321 171.162C75.2098 169.798 75.2477 168.72 75.3412 167.925C75.448 167.037 75.2254 159.7 74.6755 145.912L74.09 131.28C74.0566 131.009 73.992 130.784 73.894 130.609L72.2799 129.358C72.0083 129.149 71.7857 128.984 71.6098 128.864C70.9931 128.409 70.0024 128.17 68.6376 128.148C67.2751 128.125 66.1463 128.33 65.2536 128.762C64.3764 129.215 63.3946 130.387 62.3081 132.272C61.2818 134.051 60.0395 136.681 58.579 140.164C57.0317 143.854 55.028 148.991 52.5723 155.576L44.9337 176.057C44.6376 176.797 43.4264 179.142 41.3047 183.098L33.8843 196.917C33.3166 197.973 32.9537 198.608 32.7978 198.824C32.5774 199.126 32.0342 199.793 31.1704 200.821L25.3173 205.809L23.8613 203.74C22.4765 201.773 20.7221 195.461 18.6004 184.806L14.6531 164.976C14.17 162.55 13.7692 159.533 13.4486 155.924L13.0479 151.383L13.0167 150.781L12.2152 143.009L12.095 135.349C12.0171 133.765 12.026 130.998 12.124 127.047L12.2397 122.312C12.2754 120.928 12.3199 119.998 12.3755 119.517L12.8765 115.235L13.6357 103.645L13.787 102.899C13.7848 102.538 13.5511 102.348 13.0902 102.333H12.2331L12.0883 102.324L11.6876 102.243C11.1221 102.108 10.7748 102.038 10.6457 102.031C10.5522 102.027 10.4453 102.04 10.3251 102.068C10.1514 102.11 9.57257 102.288 8.59075 102.606C7.62006 102.918 6.87423 104.092 6.34881 106.125L5.0464 116.497L4.8015 121.606C4.46532 124.178 4.28498 128.003 4.25827 133.085C4.23155 138.165 4.36959 142.267 4.6746 145.391C4.89946 147.691 5.03081 149.186 5.06866 149.872C5.0976 150.415 5.13322 151.197 5.17552 152.213L5.11319 150.689C5.20892 152.983 6.58703 161.806 9.24752 177.158L13.2371 200.188C14.023 202.068 14.8935 203.616 15.8486 204.832C16.777 206.016 17.839 206.957 19.0323 207.652C20.259 208.366 21.6995 208.862 23.3514 209.142C26.1856 209.623 29.0353 209.149 31.8984 207.725C33.7106 206.822 35.3893 205.644 36.9366 204.191C38.4149 202.801 39.911 201.031 41.4227 198.878C43.0079 196.627 44.7689 193.738 46.7081 190.208L48.1441 187.598L63.1029 150.03C63.232 149.827 63.428 149.656 63.6907 149.515C63.9556 149.374 64.1894 149.316 64.392 149.344C65.1957 149.451 65.6966 150.291 65.897 151.862L67.5244 193.251L68.1055 197.492L68.4283 201.918L69.2632 205.704L71.0443 216.507C71.3961 218.639 72.2309 221.756 73.5445 225.857C74.8603 229.955 76.0558 233.181 77.1356 235.535C81.2966 244.608 86.9449 248.39 94.0848 246.881C95.4585 246.59 96.7008 246.039 97.8095 245.226C98.867 244.452 99.9089 243.364 100.933 241.966C102.006 240.501 103.168 238.543 104.422 236.091C105.39 234.199 106.085 232.747 106.51 231.738C106.84 230.956 107.229 229.902 107.679 228.576L128.095 168.628C131.897 158.244 135.185 149.752 137.957 143.152L145.749 124.606L146.034 123.964L146.531 122.947L149.421 117.463L146.373 180.417L146.264 185.862L146.266 187.136C146.279 187.737 146.326 188.18 146.404 188.468C146.511 188.853 146.834 189.366 147.372 190.01C147.633 190.322 147.913 190.625 148.21 190.923L152.088 191.051C152.99 190.933 153.693 190.696 154.196 190.337C154.63 190.027 155.073 189.529 155.528 188.84C156.057 188.036 156.828 186.615 157.841 184.577C160.103 180.028 162.427 176.107 164.818 172.814C167.209 169.522 169.082 167.66 170.433 167.232C171.58 166.869 172.477 167.17 173.122 168.134C173.307 168.429 173.425 168.69 173.479 168.917L173.635 169.795L174.61 176.641C175.01 179.442 176.393 181.563 178.762 183.004C179.737 183.598 180.766 184.132 181.848 184.607C180.639 184.723 179.922 184.799 179.699 184.834C179.539 184.857 179.39 184.891 179.252 184.936C179.053 184.998 178.477 185.221 177.524 185.603C166.697 189.946 158.021 194.525 151.496 199.344L148.374 201.651C145.618 203.686 143.14 205.67 140.943 207.599C138.881 209.409 136.788 211.413 134.669 213.61C132.411 215.949 129.8 218.842 126.837 222.288C120.943 229.138 115.545 236.933 110.647 245.671L106.733 252.649L105.746 254.524C105.225 255.516 104.794 256.433 104.453 257.276L103.89 258.764L102.207 263.837C100.163 270.003 98.7468 276.812 97.9609 284.263L97.4867 287.081L97.0837 291.814C96.8855 294.13 96.7765 295.793 96.7542 296.8C96.7364 297.64 96.7653 298.418 96.8432 299.137C96.9368 299.998 97.1549 301.247 97.5022 302.876C98.5887 307.975 101.34 312.978 105.755 317.889C110.172 322.797 116.072 327.411 123.457 331.727C126.917 333.75 130.225 335.296 133.382 336.367C136.437 337.404 139.556 338.066 142.735 338.353C146.021 338.648 149.601 338.562 153.473 338.096L157.048 337.784C158.219 337.684 159.248 337.53 160.127 337.325C160.918 337.141 161.781 336.88 162.723 336.538C163.774 336.157 165.21 335.569 167.031 334.776L171.016 333.528C179.058 331.007 186.013 328.273 191.882 325.324L194.547 324.112C195.811 323.539 197.1 322.855 198.416 322.062C199.618 321.337 201.074 320.386 202.784 319.203C204.654 317.91 207.237 316.058 210.532 313.649C212.627 312.118 214.517 310.617 216.209 309.144C217.783 307.774 219.422 306.22 221.125 304.486C222.955 302.622 225.159 300.242 227.735 297.345L230.685 294.031L232.181 292.188C232.826 291.44 233.332 291.094 233.701 291.149C233.804 291.164 233.862 291.209 233.877 291.284L233.902 291.615L233.922 294.356C233.984 295.528 234.087 296.345 234.234 296.804C234.354 297.191 234.552 297.505 234.828 297.745C235.155 298.033 235.774 298.363 236.687 298.73C238.421 299.353 240.022 299.122 241.487 298.038C242.206 297.473 242.807 296.87 243.295 296.229C243.704 295.686 244.196 294.91 244.775 293.894C245.461 292.689 246.621 290.516 248.253 287.38C249.56 284.864 251.042 282.495 252.701 280.274C254.36 278.052 255.845 276.44 257.158 275.442L257.254 275.369C258.385 274.508 259.634 273.751 260.996 273.094C260.97 274.067 260.963 274.676 260.981 274.92C260.992 275.093 261.028 275.307 261.081 275.564L261.889 279.316L262.199 282.32C262.515 285.368 263.176 287.464 264.189 288.605C265.037 289.563 266.72 290.747 269.238 292.158L276.906 290.942C278.213 290.581 279.673 290.038 281.29 289.315C282.906 288.59 284.242 287.88 285.299 287.183C286.116 286.645 286.909 286.089 287.677 285.514L288.617 287.844L288.826 288.329C288.915 288.528 289.006 288.699 289.1 288.849C289.231 289.058 289.641 289.616 290.326 290.527C291.25 291.752 292.308 292.701 293.499 293.377C294.661 294.038 296.008 294.465 297.535 294.664C299.1 294.867 300.933 294.833 303.03 294.561C303.831 294.459 304.539 294.288 305.156 294.05C305.731 293.83 306.312 293.522 306.906 293.127C307.543 292.701 308.3 292.103 309.175 291.333ZM411.117 111.293L410.719 111.273C410.438 111.327 410.031 111.346 409.501 111.333C408.819 111.524 408.421 111.648 408.307 111.703C408.229 111.742 408.165 111.795 408.118 111.864C408.054 111.96 407.902 112.304 407.668 112.892L407.161 114.173C407.281 114.361 407.461 114.367 407.702 114.19C407.882 114.042 408.145 113.863 408.494 113.653C408.842 113.444 409.093 113.313 409.247 113.26L410.649 112.853L410.834 112.785C410.885 112.759 410.952 112.697 411.041 112.599C411.593 111.97 411.618 111.534 411.117 111.293ZM198.794 179.382C199.54 179.557 199.761 180.002 199.462 180.718C199.327 181.045 199.144 181.276 198.917 181.413C198.719 181.533 198.429 181.612 198.055 181.652C197.63 181.697 196.958 181.704 196.034 181.674C195.751 181.652 195.506 181.593 195.301 181.494C195.097 181.396 195.003 181.293 195.025 181.189C195.043 181.103 195.092 181.024 195.179 180.949C195.252 180.885 195.373 180.804 195.542 180.703L196.566 180.139C197.652 179.54 198.394 179.288 198.794 179.382ZM545.994 160.444L551.564 147.236C553.122 143.539 554.801 139.122 556.596 133.985C558.39 128.847 559.523 125.217 559.993 123.096L561.854 114.718C562.173 111.96 562.115 109.531 561.683 107.432C561.251 105.332 560.489 103.789 559.399 102.801C558.797 102.286 558.339 101.926 558.023 101.723C557.758 101.552 557.479 101.418 557.188 101.317C556.843 101.195 556.297 101.067 555.554 100.928L554.772 100.751L554.65 100.729L554.378 100.733C552.305 100.883 550.687 101.262 549.52 101.869C548.253 102.529 547.149 103.329 546.21 104.267C545.306 105.172 544.482 106.273 543.741 107.571C542.973 108.917 542.231 110.587 541.517 112.576L537.545 127.291L537.275 129.568L536.828 131.725L536.763 132.136L536.65 133.538L535.499 139.68L535.073 141.209L535.018 141.455L534.958 142.064L534.595 146.78L534.034 150.199L532.889 158.924L532.364 162.075L532.293 162.672L531.908 171.968L531.498 175.371C531.438 176.889 531.324 178.041 531.157 178.828C531.008 179.529 530.781 180.126 530.474 180.622C530.131 181.18 529.583 181.768 528.831 182.386C525.525 185.105 522.06 186.839 518.438 187.587C517.345 187.812 516.693 187.936 516.483 187.957C516.337 187.97 516.194 187.968 516.056 187.944C515.858 187.912 515.272 187.756 514.295 187.476C512.857 187.061 511.848 185.911 511.267 184.026C510.686 182.14 510.722 180.128 511.372 177.992L512.665 173.751L512.739 168.94L511.136 168.897L506.554 169.156C504.664 169.62 503.453 169.9 502.92 169.996C502.511 170.071 502.157 170.108 501.854 170.105C501.46 170.103 500.761 170.011 499.759 169.834C497.517 169.434 495.56 169.235 493.893 169.24C492.345 169.242 490.796 169.423 489.244 169.78C487.572 170.165 485.608 170.826 483.353 171.76C478.515 173.768 474.875 177 472.437 181.46C471.838 182.615 471.424 183.634 471.191 184.522C470.968 185.37 470.894 186.17 470.97 186.918C471.048 187.696 471.295 188.492 471.712 189.3C472.404 190.64 473.709 191.718 475.626 192.53C477.545 193.345 479.851 193.8 482.549 193.896C484.473 193.965 486.194 193.841 487.715 193.522C489.168 193.219 490.571 192.71 491.925 191.998C493.336 191.254 494.83 190.215 496.402 188.881L501.427 184.616C501.654 185.873 502.115 187.032 502.811 188.09C503.348 188.904 503.985 189.563 504.719 190.067C505.421 190.544 506.287 190.933 507.315 191.233C508.4 191.549 509.791 191.801 511.485 191.989C513.761 192.242 516.287 192.073 519.07 191.485C521.856 190.897 524.169 190.04 526.014 188.917L530.327 186.185L530.389 194.164C530.407 196.419 531.447 197.706 533.504 198.029C534.726 198.166 535.822 197.935 536.792 197.332C537.765 196.731 538.457 195.855 538.872 194.705L539.987 187.429L539.998 187.252C540.103 185.751 539.811 184.169 539.123 182.508L544.092 186.593C545.553 187.951 546.858 189.033 548.011 189.839C549.077 190.585 550.188 191.215 551.339 191.733C552.581 192.293 554.095 192.817 555.876 193.304C558.664 194.065 561.894 194.151 565.568 193.559C569.243 192.966 572.625 191.814 575.713 190.106L580.987 186.696L587.698 181.445C586.916 181.347 586.173 181.323 585.469 181.375C584.621 181.46 584.109 181.522 583.937 181.563C583.817 181.59 583.69 181.637 583.561 181.702C583.376 181.794 582.798 182.136 581.825 182.728C574.769 187.017 568.52 189.09 563.074 188.949C559.657 188.862 556.128 187.517 552.492 184.919C551.235 184.021 550.491 183.478 550.257 183.29C550.09 183.158 549.934 183.016 549.787 182.865C549.58 182.649 548.973 181.956 547.964 180.791C549.062 180.519 550.137 180.205 551.192 179.848C553.706 178.995 556.244 177.907 558.811 176.583C562.8 174.522 565.234 172.318 566.109 169.973L566.251 166.095C560.828 164.256 556.015 163.937 551.813 165.137C549.071 165.919 546.428 167.394 543.885 169.565L543.465 169.947C543.251 170.09 543.013 170.17 542.75 170.187C542.487 170.202 542.282 170.148 542.135 170.026C542.011 169.924 541.946 169.753 541.942 169.511C541.935 169.272 541.991 169.045 542.107 168.831C542.703 167.734 543.293 166.529 543.874 165.216L545.994 160.444ZM421.198 65.9577C430.549 69.962 438.154 76.1428 444.016 84.5C444.746 85.5434 445.481 86.5653 446.215 87.5659C446.995 88.6263 448.081 90.5611 449.473 93.3746C450.866 96.186 451.908 98.5506 452.603 100.466L453.734 103.314C455.036 106.594 456.109 109.986 456.949 113.491L457.34 114.855L458.48 121.3L458.63 123.419L459.237 127.274C459.362 128.185 459.453 129.621 459.511 131.586C459.569 133.549 459.585 135.689 459.558 138.006C459.531 140.322 459.467 142.402 459.362 144.247C459.26 146.092 459.139 147.375 458.999 148.091L458.794 149.139L458.75 149.508L458.56 151.657L456.33 161.242L456.12 161.819L456.049 162.077L455.653 163.751C455.074 166.193 453.979 169.381 452.371 173.319C450.762 177.255 449.201 180.564 447.685 183.249C443.586 190.506 440.427 194.581 438.209 195.474L435.242 196.428C433.663 196.934 432.512 197.445 431.789 197.965C431.179 198.401 430.611 199.015 430.083 199.801C429.458 200.738 428.578 202.414 427.445 204.83C426.766 206.273 425.971 207.483 425.054 208.462C424.224 209.347 423.119 210.235 421.743 211.122C420.225 212.103 418.001 213.322 415.071 214.778C409.65 217.472 404.318 219.152 399.072 219.817L395.673 220.249L394.905 220.313C394.569 220.33 394.215 220.321 393.838 220.287L392.941 220.182L388.767 219.569C379.472 218.203 371.412 213.313 364.589 204.898C361.774 201.426 359.256 197.236 357.037 192.327C354.817 187.421 353.276 182.64 352.413 177.986L352.317 177.462L352.259 177.25L351.872 175.94L350.912 168.042C350.718 165.983 350.654 163.538 350.716 160.709C350.779 157.883 350.941 155.873 351.206 154.682L351.317 154.124L351.357 153.748L351.604 151.052C351.716 149.831 352.212 147.627 353.092 144.435C353.971 141.243 354.761 138.785 355.46 137.059L356.217 135.191L356.569 134.214C356.845 133.45 357.391 132.253 358.208 130.622C359.025 128.991 359.935 127.278 360.94 125.489L362.874 122.042L367.398 127.024C367.728 127.372 368.037 127.674 368.322 127.93L368.966 128.488L371.8 130.799C380.251 137.694 390.432 142.969 402.345 146.624L406.321 147.845L407.174 148.067L410.578 148.775L420.278 151.129C421.32 151.358 422.264 151.356 423.113 151.127C423.961 150.896 424.422 150.515 424.495 149.983C424.546 149.607 424.466 149.314 424.255 149.102C424.07 148.916 423.734 148.737 423.246 148.559C422.687 148.356 421.719 148.089 420.343 147.751C416.004 146.693 411.54 145.322 406.952 143.638C402.361 141.953 398.558 140.292 395.544 138.654C390.445 135.883 386.173 133.249 382.727 130.757C379.418 128.364 376.589 125.897 374.24 123.357C371.793 120.71 369.653 117.751 367.821 114.48C367.314 113.572 366.897 112.757 366.57 112.035C366.274 111.38 365.987 110.658 365.706 109.865C365.394 108.986 365.016 107.799 364.571 106.303L363.961 104.259L363.874 103.866L363.709 102.508L363.235 100.158C363.095 99.4635 362.981 97.9605 362.89 95.6516L362.885 95.6024C362.658 88.9769 364.673 83.012 368.928 77.7057C373.184 72.3993 379.416 68.0807 387.625 64.7519C391.786 63.0629 396.334 62.1585 401.272 62.0367C408.06 61.8699 414.701 63.1762 421.198 65.9577ZM533.359 126.476L537.453 111.299C539.744 104.817 543.111 100.415 547.552 98.0974C549.255 97.2101 551.446 96.6756 554.127 96.496C554.685 96.4597 555.42 96.5409 556.331 96.744C558.517 97.1524 560.472 98.1123 562.195 99.6281C563.537 100.808 564.555 102.318 565.245 104.152C566.347 107.079 566.619 110.835 566.058 115.421L564.145 124.022C563.638 126.308 562.46 130.096 560.612 135.387C558.789 140.608 557.081 145.106 555.487 148.888L550.32 161.141L550.647 161.047C555.698 159.606 561.353 159.944 567.616 162.065L568.954 162.518C570.065 162.894 570.599 163.668 570.557 164.84L570.337 170.815C569.125 174.51 565.933 177.693 560.763 180.363C559.303 181.116 557.849 181.8 556.402 182.411C558.795 183.88 561.055 184.641 563.183 184.697C567.794 184.817 573.273 182.948 579.614 179.091C581.477 177.96 583.305 177.312 585.1 177.154C586.106 177.062 587.152 177.088 588.236 177.227L591.048 177.584C595.915 178.206 596.416 180.028 592.553 183.051L583.461 190.164L577.902 193.757C574.342 195.746 570.457 197.08 566.247 197.758C561.966 198.448 558.134 198.331 554.754 197.407C550.738 196.308 547.029 194.433 543.625 191.778L543.015 195.756C542.247 198.13 540.942 199.887 539.103 201.031C537.347 202.125 535.292 202.529 532.938 202.245C530.879 201.944 529.24 201.086 528.023 199.675C526.78 198.239 526.152 196.411 526.135 194.196L526.13 193.663C524.32 194.497 522.261 195.158 519.952 195.647C516.722 196.329 513.743 196.52 511.016 196.216C505.904 195.65 502.23 194.048 499.993 191.412L499.156 192.124C496.602 194.29 493.879 195.876 490.981 196.881C488.242 197.832 485.381 198.254 482.398 198.147C477.941 197.988 474.423 197.091 471.845 195.455C470.115 194.36 468.811 192.958 467.929 191.248C467.156 189.751 466.771 188.135 466.774 186.405C466.776 184.212 467.41 181.896 468.679 179.463C471.598 174.103 475.946 170.225 481.723 167.831C484.197 166.804 486.385 166.073 488.287 165.635C490.15 165.205 492.016 164.989 493.884 164.985C495.796 164.981 497.989 165.199 500.46 165.641C501.155 165.768 501.623 165.836 501.865 165.851L502.159 165.81C502.725 165.708 503.978 165.415 505.922 164.932L511.073 164.641L514.602 164.735C516.241 164.78 517.047 165.62 517.022 167.258L516.911 174.418L515.444 179.234C515.045 180.539 515.01 181.719 515.335 182.773C515.428 183.076 515.517 183.292 515.602 183.423C516.198 183.57 516.857 183.568 517.579 183.421C520.513 182.815 523.363 181.377 526.126 179.102C526.504 178.79 526.747 178.55 526.854 178.388C526.901 178.309 526.947 178.161 526.994 177.945C527.123 177.34 527.208 176.37 527.252 175.031L527.649 171.797L528.049 162.317L528.15 161.47L528.668 158.37L529.824 149.579L530.345 146.453L530.719 141.694L530.808 140.775L530.946 140.168L531.309 138.896L532.426 132.971C532.52 131.892 532.725 130.59 533.041 129.063L533.359 126.476ZM323.822 107.387C323.813 107.297 323.866 107.083 323.982 106.745L324.378 105.758L325.676 99.5811C325.721 99.4015 325.794 99.1984 325.895 98.9697L326.289 98.1444L326.318 97.9947C326.315 97.9349 326.271 97.7788 326.182 97.5244C326.086 97.2785 325.85 97.1225 325.478 97.0519C325.104 96.9835 324.772 97.0348 324.483 97.2058L323.196 97.9691C322.998 98.0738 322.842 98.1401 322.726 98.17C322.588 98.2064 322.441 98.2021 322.288 98.1572C321.892 98.0439 321.68 97.8258 321.658 97.5052C321.638 97.2465 321.716 96.7975 321.889 96.1582C322.103 95.3629 322.644 93.6547 323.51 91.0357C324.102 89.2399 324.474 88.0512 324.626 87.4697C324.748 86.9972 324.801 86.6508 324.784 86.4306C324.764 86.157 324.61 85.9154 324.325 85.7037C323.655 85.2483 323.214 84.9212 322.998 84.7181C322.822 84.5492 322.706 84.3825 322.649 84.2178C322.577 84.0169 322.562 83.6962 322.6 83.2536C322.722 82.3536 322.778 80.8549 322.764 78.7533C322.753 76.6538 322.684 75.4523 322.555 75.1487C322.194 74.4239 321.987 73.7376 321.929 73.0898L320.663 69.4254L320.505 68.9187C320.469 68.7691 320.444 68.5253 320.431 68.1833L320.427 67.3666L320.411 67.2511L320.295 67.0609C320.077 66.7722 319.848 66.6739 319.607 66.7658C319.438 66.83 319.113 67.0117 318.63 67.3131L310.833 72.3587C310.027 72.7905 309.377 73.1583 308.883 73.4597C308.736 73.5581 308.689 73.6756 308.745 73.8146C308.801 73.9514 308.943 74.0819 309.177 74.2037L310.059 74.6677L310.212 74.7916C310.248 74.8408 310.281 74.9477 310.306 75.1102C310.39 75.8713 310.519 76.4186 310.693 76.7543L311.243 77.6843L311.294 77.866C311.296 77.9451 311.256 78.161 311.174 78.5181L310.584 80.7608L310.506 81.1499L310.413 82.2702L309.199 91.4633L308.761 93.3319L308.674 93.9027C308.594 94.4222 308.231 95.5233 307.581 97.208C306.933 98.8927 306.287 100.408 305.646 101.755C305.036 102.88 304.907 103.643 305.263 104.049L307.941 104.922L309.268 105.321C309.351 105.354 309.404 105.39 309.431 105.428C309.469 105.484 309.497 105.666 309.513 105.971C309.524 107.006 309.671 108.028 309.954 109.035C310.154 109.619 310.288 110.123 310.355 110.551C310.466 111.434 310.357 112.148 310.027 112.697C309.709 113.223 309.161 113.636 308.384 113.935C307.576 114.245 306.459 114.455 305.027 114.566L294.795 115.143L285.869 116.68C283.892 117.198 282.483 117.544 281.646 117.715C280.927 117.863 280.352 117.942 279.92 117.952C279.417 117.963 278.903 117.882 278.378 117.707L278.226 117.649C277.431 117.35 276.683 116.847 275.982 116.144L258.271 120.187C257.897 120.249 257.617 120.217 257.425 120.09C257.187 119.934 257.094 119.74 257.143 119.502L257.419 118.369L257.437 118.22C257.432 118.179 257.388 118.126 257.303 118.057C256.944 117.766 256.452 117.762 255.831 118.047L255.121 118.369L251.125 119.622C250.306 119.821 249.544 120.084 248.841 120.413C245.935 122.551 243.377 125.132 241.166 128.159C240.349 129.222 240 130 240.118 130.498C240.158 130.665 240.24 130.778 240.369 130.838C240.476 130.887 240.657 130.921 240.908 130.943C241.209 130.966 241.783 130.977 242.629 130.977H243.094L245.323 130.831L259.209 128.651L261.938 128.155L262.444 128.097L269.626 128.099C269.993 128.099 270.287 128.082 270.503 128.05C270.808 128.005 271.498 127.823 272.576 127.509L276.739 125.882C276.953 125.767 277.175 125.677 277.405 125.615L288.501 123.124L288.944 123.066C289.102 123.064 289.458 123.103 290.017 123.184C292.007 123.473 293.299 123.684 293.893 123.813C294.367 123.917 294.712 124.033 294.928 124.159C295.198 124.319 295.44 124.625 295.659 125.074C295.921 125.662 296.151 126.077 296.351 126.314C296.531 126.528 296.729 126.656 296.948 126.701C297.19 126.75 297.526 126.703 297.956 126.562L298.962 126.201L307.369 124.043L308.387 123.808C308.64 123.768 308.887 123.795 309.132 123.894C309.709 124.238 310.072 124.488 310.219 124.642C310.335 124.764 310.401 124.901 310.415 125.057C310.43 125.249 310.366 125.632 310.219 126.198C309.892 127.308 309.709 127.969 309.671 128.178C309.644 128.328 309.638 128.471 309.653 128.608C309.676 128.802 309.807 129.38 310.052 130.34C310.913 133.737 310.864 136.341 309.903 138.158L307.545 142.611L307.218 143.276C307.124 143.492 306.979 143.931 306.781 144.593C306.28 146.269 306.568 147.217 307.647 147.437C308.264 147.546 308.663 147.636 308.839 147.704C309.152 147.828 309.357 148.042 309.451 148.343C309.542 148.647 309.486 148.912 309.279 149.141C309.059 149.37 308.903 149.59 308.814 149.799C308.736 149.979 308.683 150.21 308.654 150.488C308.618 150.81 308.603 151.321 308.607 152.021L308.631 156.348L306.354 164.389L303.284 177.02L319.084 171.307C320.994 170.616 322.473 170.244 323.521 170.193C323.379 169.909 323.194 169.65 322.971 169.411C322.682 169.077 322.535 168.868 322.528 168.782C322.524 168.722 322.56 168.643 322.637 168.549C322.747 168.416 323.207 167.955 324.022 167.166C326.046 165.118 326.741 162.736 326.102 160.016C325.917 159.228 326.249 157.776 327.097 155.661C327.279 155.146 327.362 154.808 327.346 154.648C327.335 154.526 327.27 154.398 327.155 154.265C327.001 154.088 326.549 153.686 325.797 153.062C325.581 152.865 325.456 152.715 325.427 152.613C325.407 152.542 325.398 152.418 325.398 152.245L325.518 149.491L325.558 146.432L325.63 145.816L326.255 141.333L326.387 138.385L326.449 137.75L326.516 137.485L327.032 135.834L328.163 131.518C328.121 131.212 327.745 130.917 327.032 130.633C326.206 130.269 326.126 129.66 326.792 128.803L327.522 127.246C328.368 125.566 329.194 124.43 329.998 123.842C330.708 123.323 331.596 123.071 332.663 123.086C333.872 123.101 335.713 123.479 338.186 124.217C340.07 124.781 341.372 125.123 342.089 125.245C342.663 125.343 343.209 125.369 343.725 125.322C344.371 125.262 345.44 125.033 346.934 124.631L348.009 124.343C349.086 122.528 350.286 120.644 351.611 118.69L353.403 115.913L352.611 115.457C352.442 115.389 352.255 115.355 352.05 115.355C351.783 115.353 351.204 115.419 350.311 115.552L342.688 116.689C341.837 116.975 341.33 117.136 341.17 117.17C341.054 117.196 340.949 117.202 340.856 117.191C340.724 117.176 340.368 117.076 339.787 116.892C339.224 116.687 338.765 116.582 338.413 116.576L329.167 116.441C328.341 116.428 327.778 116.447 327.478 116.499C327.077 116.565 326.79 116.774 326.614 117.125C326.38 117.591 326.082 117.839 325.719 117.871C325.38 117.899 325.126 117.831 324.955 117.662C324.795 117.503 324.69 117.238 324.639 116.869C324.583 116.473 324.583 115.906 324.637 115.167C324.975 113.063 325.178 111.72 325.244 111.143C325.298 110.692 325.313 110.356 325.293 110.132C325.269 109.845 325.147 109.518 324.926 109.151L323.92 107.635C323.862 107.532 323.829 107.451 323.822 107.387ZM549.01 115.787C549.275 114.562 549.785 113.031 550.538 111.192C551.29 109.351 551.889 108.159 552.334 107.609C552.962 106.837 553.341 106.382 553.474 106.241C553.568 106.142 553.668 106.055 553.779 105.974C553.933 105.86 554.434 105.542 555.28 105.018L555.482 105.599L555.485 105.512L556.215 109.715C556.072 111.932 555.747 114.128 555.244 116.304L554.443 119.768L554.009 121.437C553.871 121.97 553.701 122.566 553.499 123.225L553.396 123.558L553.365 123.712L553.194 124.706C553.038 125.619 552.873 126.365 552.702 126.947L544.435 151.736C544.155 152.499 543.919 153.064 543.727 153.427C543.491 153.872 543.171 154.278 542.765 154.644C542.514 154.87 542.278 154.935 542.057 154.834C541.697 154.672 541.652 154.133 541.922 153.22L542.841 146.244L544.62 136.003L549.01 115.787ZM274.571 159.153L273.943 159.257L270.198 159.724L267.876 160.138C266.46 160.391 263.788 160.485 259.861 160.423C255.936 160.359 252.728 160.177 250.239 159.873L245.519 159.574L245.069 159.529L244.835 159.484L243.259 159.14L240.463 158.753L239.503 158.558L237.682 173.723C237.195 177.787 237.246 180.759 237.84 182.636C237.992 183.111 238.154 183.444 238.328 183.639C238.406 183.724 238.541 183.79 238.735 183.833C239.056 183.904 239.47 183.914 239.978 183.867C241.271 183.745 242.905 183.26 244.88 182.414C249.756 180.325 253.511 178.232 256.143 176.137C257.365 175.164 258.316 174.215 258.993 173.289L262.791 168.098C265.799 164.957 270.174 162.712 275.913 161.363C279.941 160.418 283.723 160.121 287.261 160.476L287.354 159.972L287.501 159.548L288.472 157.583C289.084 156.346 289.921 155.172 290.981 154.062L278.533 158.139L277.874 158.263L277.641 158.321L274.571 159.153ZM434.618 214.453L434.868 212.407C434.977 211.656 435.315 210.737 435.881 209.647C436.446 208.554 436.967 207.823 437.444 207.447C438.198 206.82 438.753 206.632 439.107 206.882L439.104 206.902C439.354 207.117 439.505 207.408 439.561 207.772C439.61 208.095 439.601 208.561 439.532 209.17C439.456 209.86 439.278 210.968 438.995 212.49L431.775 251.533C431.622 251.775 431.524 251.999 431.486 252.207C431.455 252.369 431.386 252.515 431.283 252.639C431.181 252.765 431.074 252.831 430.963 252.84C430.822 252.852 430.724 252.735 430.671 252.491C430.627 252.282 430.595 251.91 430.58 251.379C430.562 250.761 430.557 249.652 430.566 248.053L434.211 216.43L434.255 216.182L434.618 214.453ZM339.658 184.378C339.462 185.073 339.339 185.759 339.286 186.441C339.215 187.333 339.217 189.176 339.295 191.968L339.431 196.89C339.344 197.766 339.311 198.35 339.328 198.643C339.344 198.884 339.397 199.055 339.489 199.152C339.6 199.269 339.84 199.34 340.21 199.363C340.753 199.397 341.114 199.089 341.288 198.442L341.559 197.418C341.176 196.353 341.121 195.479 341.39 194.797L343.198 192.981L343.354 192.911C342.612 191.07 341.875 189.005 341.145 186.713L340.027 183.211L339.658 184.378ZM396.505 154.03C396.013 153.831 395.802 153.643 395.873 153.466C392.779 153.714 389.136 153.515 384.948 152.869L382.526 152.497L381.482 152.386L375.382 150.958L363.19 146.558L361.605 147.717L361.325 147.939L356.137 152.735L355.69 153.102L355.592 154.171L355.527 154.77L355.371 155.555C355.16 156.489 355.026 158.238 354.971 160.805C354.913 163.414 354.968 165.656 355.135 167.529L356.055 175.076C356.335 176.042 356.518 176.754 356.603 177.212C358.37 186.777 362.133 195.113 367.895 202.219C374.022 209.777 381.188 214.151 389.39 215.346L394.232 216.052L394.684 216.065C395.067 216.043 396.35 215.892 398.531 215.612C403.303 214.998 408.185 213.45 413.176 210.968C415.964 209.583 418.05 208.443 419.435 207.549C420.519 206.848 421.356 206.183 421.948 205.553C422.558 204.903 423.106 204.06 423.591 203.023C424.816 200.413 425.8 198.551 426.548 197.437C427.36 196.22 428.282 195.245 429.309 194.508C430.395 193.73 431.94 193.022 433.944 192.383L436.571 191.545C436.731 191.468 436.974 191.273 437.297 190.961C438.982 189.33 441.208 186.061 443.98 181.156C445.407 178.629 446.892 175.48 448.433 171.709C449.956 167.978 450.984 164.998 451.512 162.768L451.926 161.03L452.06 160.534L452.242 160.031L454.348 150.979L454.517 149.066L454.589 148.484L454.825 147.281C455.087 145.936 455.246 142.827 455.301 137.955L455.312 137.059L452.329 138.472C452.146 138.361 451.913 138.321 451.63 138.351C451.345 138.38 451.138 138.468 451.007 138.614C450.828 138.832 450.575 138.986 450.243 139.075L439.445 145.121L438.083 145.846C437.746 146.009 437.415 146.09 437.09 146.09C437.027 146.449 436.765 146.714 436.301 146.883C435.498 147.135 435.012 147.324 434.848 147.443C434.732 147.529 434.607 147.67 434.478 147.869L434.169 148.382L428.745 149.282C428.783 149.699 428.772 150.126 428.71 150.562C428.567 151.61 428.144 152.534 427.441 153.331C426.65 154.231 425.579 154.864 424.228 155.232C422.694 155.649 421.058 155.661 419.319 155.275L409.73 152.944L408.39 152.66L397.067 154.537L396.953 154.295C396.895 154.227 396.746 154.137 396.505 154.03ZM256.786 189.197L257.287 189.208C258.227 189.227 258.899 189.659 259.307 190.504L261.09 194.198C261.983 195.9 262.582 197.43 262.887 198.788C263.368 200.926 263.635 203.019 263.684 205.067C263.728 206.904 263.608 208.982 263.321 211.301C263.022 213.698 262.488 216.824 261.713 220.674L260.257 227.905L259.794 230.78C259.503 231.65 259.276 232.687 259.113 233.889L252.409 258.73L253.231 258.563L272.663 255.448L273.257 255.377L275.232 255.26L279.319 230.327L280.168 229.151C280.214 229.066 280.239 228.986 280.239 228.914C280.241 228.809 280.168 228.516 280.023 228.031C279.932 227.727 279.912 227.407 279.961 227.067L280.219 225.681L282.53 214.632L282.434 214.587L282.363 214.474C282.332 214.386 282.323 214.275 282.336 214.141C282.352 214.006 282.383 213.901 282.43 213.824C282.668 213.486 282.641 213.288 282.354 213.228C281.784 213.108 281.488 213.198 281.466 213.493L281.403 214.316C281.383 214.421 281.354 214.493 281.312 214.534C281.263 214.585 281.156 214.62 280.996 214.632L280.526 217.625C280.299 218.851 279.84 220.02 279.148 221.136C278.456 222.25 277.854 222.789 277.347 222.748C276.893 222.712 276.563 222.53 276.356 222.201C276.16 221.891 276.053 221.414 276.033 220.77C276.011 220.093 276.087 219.15 276.258 217.94C276.412 216.854 276.579 215.815 276.761 214.823L277.338 211.693L278.402 206.572C278.106 205.33 277.939 204.58 277.901 204.321C277.874 204.139 277.866 203.945 277.872 203.737L278.113 200.928L278.923 196.156L279.168 194.876L277.491 194.687C270.363 194.179 264.924 191.857 261.177 187.722L260.24 186.687L258.706 187.936L256.786 189.197ZM213.183 176.75C213.161 177.227 213.168 177.612 213.199 177.905L213.444 179.123C213.914 179.095 214.51 178.961 215.236 178.719C217.572 177.939 219.188 176.966 220.085 175.805C220.597 175.14 220.884 174.351 220.942 173.441L221.372 166.858L221.859 164.072L221.911 163.649L222.171 156.241L216.343 155.986C216.156 156.707 215.855 157.389 215.443 158.03C214.951 158.8 214.305 159.493 213.511 160.111C212.271 161.075 210.872 161.701 209.314 161.992C210.632 162.674 211.654 163.587 212.38 164.731C213.052 165.793 213.462 167.061 213.611 168.534C213.727 169.689 213.693 171.164 213.508 172.957C213.324 174.755 213.215 176.021 213.183 176.75ZM232.243 242.015L232.84 230.56L234.465 217.478L234.97 214.827L234.986 214.778L235.157 212.839L235.273 212.163L235.848 209.294C236.475 206.173 237.23 203.286 238.116 200.635C238.697 198.903 239.445 197.321 240.36 195.891C238.377 196.118 236.349 196.124 234.271 195.908C231.898 195.66 229.75 194.912 227.824 193.663C225.773 192.331 224.039 190.467 222.621 188.071L220.548 189.398C221.051 191.448 221.203 193.826 220.998 196.53C220.622 201.531 218.921 207.455 215.891 214.303C212.945 220.965 209.189 227.507 204.628 233.934C201.776 237.953 199.756 240.672 198.57 242.094C197.383 243.514 196.274 244.568 195.243 245.256C193.734 246.263 191.844 246.866 189.58 247.067L182.242 246.52C179.55 246.319 178.802 245.008 179.997 242.59L182.745 237.032L183.177 236.253C183.375 235.928 183.838 235.234 184.564 234.167L192.184 222.994C193.111 221.636 193.827 220.535 194.34 219.689C194.979 218.63 195.802 217.129 196.809 215.188C198.979 211.004 200.473 207.977 201.288 206.111C201.923 204.655 202.403 203.327 202.728 202.123C203.131 200.644 203.51 198.523 203.866 195.759L204.138 193.653L203.842 192.53C203.623 191.699 203.376 191.132 203.096 190.826C202.922 190.636 202.626 190.478 202.205 190.35C201.364 190.095 200.106 189.965 198.429 189.96C194.233 189.948 189.168 191.171 183.239 193.629L179.77 195.068C171.922 198.322 164.638 202.75 157.916 208.349L153.831 211.753L146.244 219.201C144.236 221.172 141.978 223.595 139.473 226.464C136.982 229.316 135.063 231.676 133.714 233.545L127.961 241.517L127.115 242.748C126.837 243.174 126.193 244.249 125.178 245.975L122.208 251.029L117.637 259.758L114.846 266.336L112.374 273.603L110.266 281.845C109.607 284.727 109.228 288.385 109.128 292.821C109.03 297.146 109.228 300.268 109.727 302.185C110.838 306.459 113.343 310.389 117.246 313.974C123.424 319.65 130.147 323.817 137.416 326.475C142.828 328.452 148.724 329.19 155.102 328.687C155.686 328.64 156.988 328.356 159.014 327.828C161.187 327.263 163.24 326.656 165.177 326.011C175.237 322.646 183.428 319.276 189.747 315.9C193.38 313.959 195.829 312.61 197.089 311.855C198.024 311.295 198.973 310.673 199.937 309.985C201.246 309.052 203.824 307.098 207.671 304.124C209.118 303.006 211.687 300.685 215.379 297.159C219.088 293.614 221.69 290.995 223.182 289.298C226.107 285.975 228.04 283.647 228.979 282.313C229.592 281.443 230.006 280.695 230.217 280.064L230.402 279.361L190.325 286.457L188.193 286.935L187.888 286.985L187.396 286.929C186.921 286.841 186.77 286.666 186.944 286.403C187.447 285.687 188.124 284.93 188.972 284.135C189.796 283.361 190.831 282.503 192.082 281.559C193.369 280.586 194.967 279.459 196.875 278.178C198.231 277.266 199.518 276.462 200.736 275.769C201.851 275.132 203.114 274.467 204.525 273.774C206.064 273.017 208.098 272.07 210.625 270.933L213.885 269.466L222.133 266.512L224.242 265.817L231.172 263.769L231.805 245.78L232.243 242.015ZM400.288 115.894C400.059 115.983 399.914 116.193 399.852 116.526C399.789 116.86 399.838 117.149 400.003 117.392C400.059 117.486 400.077 117.771 400.057 118.247C400.057 118.425 400.07 118.525 400.101 118.551L400.241 118.587L401.399 118.59C401.893 118.592 402.098 118.765 402.011 119.107L402.314 119.068C402.708 119.079 402.94 119.075 403.006 119.06C403.055 119.049 403.095 119.024 403.129 118.985C403.178 118.929 403.298 118.718 403.494 118.346C404.189 117.164 404.741 116.013 405.148 114.891C405.558 113.768 405.654 113.14 405.438 113.01C405.17 112.847 404.986 112.768 404.881 112.772C404.805 112.776 404.701 112.817 404.574 112.894C404.4 112.999 403.926 113.339 403.147 113.916L402.327 114.521L401.412 115.109L401.288 115.192L401.134 115.329C401.125 115.428 401.105 115.498 401.069 115.539L400.92 115.637L400.288 115.894ZM382.502 291.128C383.512 291.421 384.316 291.605 384.911 291.68C385.387 291.742 385.946 291.759 386.585 291.735C387.475 291.703 388.876 291.575 390.784 291.352C393.865 290.993 397.213 290.296 400.834 289.259L384.009 285.125C383.174 285.884 382.528 286.771 382.072 287.788C381.609 288.828 381.369 289.655 381.357 290.271C381.353 290.41 381.36 290.506 381.377 290.564L381.507 290.677C381.736 290.839 382.065 290.989 382.502 291.128ZM319.99 60.6556C319.819 60.4546 319.621 60.4012 319.4 60.491C319.224 60.5636 318.937 60.7561 318.541 61.0661C318.042 61.4573 316.936 62.383 315.221 63.8432C313.035 65.7097 312.214 66.8642 312.759 67.3067C313.006 67.5077 313.233 67.6317 313.445 67.6766C313.63 67.7151 313.85 67.7065 314.106 67.6488C314.393 67.5825 314.814 67.4329 315.368 67.1998C316.606 66.676 317.869 65.9171 319.153 64.9208C320.44 63.9224 321.086 63.204 321.088 62.7657L319.99 60.6556ZM160.185 134.752C160.096 135.216 159.978 135.567 159.833 135.804C159.758 135.928 159.678 136.163 159.591 136.512C159.442 137.023 159.096 137.147 158.553 136.888C158.357 136.794 158.248 136.726 158.224 136.681C158.208 136.651 158.206 136.597 158.213 136.525L158.446 135.385L163.14 94.5184C163.217 93.9989 163.436 93.5072 163.798 93.0411C164.159 92.5751 164.576 92.2501 165.043 92.0641C165.214 92.0042 165.361 92.0149 165.484 92.0962L165.508 92.1325C166.129 92.5879 166.443 93.1224 166.45 93.7338C166.457 94.1657 166.361 95.0102 166.165 96.2673L160.185 134.752ZM377.898 114.649C377.713 114.698 377.268 114.85 376.564 115.107C375.711 114.771 374.839 114.519 373.944 114.352C373.469 114.264 373.022 114.217 372.601 114.207C374.017 116.477 375.604 118.564 377.366 120.469C378.136 121.303 378.964 122.13 379.852 122.949L380.24 123.004C381.01 123.111 381.471 123.199 381.62 123.261L383.441 124.828C384.263 125.536 385.737 125.221 387.858 123.885L389.735 122.705L389.891 122.395L389.993 122.239L390.726 121.183C391.142 120.527 391.338 119.319 391.316 117.557C391.291 115.795 391.058 114.213 390.612 112.811C389.733 112.661 388.753 112.695 387.674 112.909L381.504 114.13L378.41 114.553L377.898 114.649ZM300.708 274.161L300.648 278.625C300.505 281.522 300.45 283.502 300.479 284.567C300.496 285.178 300.539 285.608 300.608 285.854L300.866 286.382C301.202 286.151 301.545 285.856 301.892 285.49C302.981 284.346 304.032 282.645 305.043 280.389L307.663 274.537L300.708 274.161ZM359.203 280.15C359.733 280.62 359.958 281.257 359.878 282.065L358.78 293.178C359.345 292.815 359.958 292.349 360.61 291.778C361.603 290.916 362.371 290.166 362.917 289.529C363.373 288.996 363.823 288.37 364.266 287.649C364.829 286.73 365.559 285.368 366.456 283.564L367.472 281.736L359.203 280.15ZM275.608 180.075C275.737 180.41 276.069 180.776 276.603 181.171C277.923 182.148 279.716 182.64 281.98 182.649L282.726 179.32L283.004 178.332L281.84 178.437L275.702 178.715L275.595 179.222C275.521 179.574 275.526 179.859 275.608 180.075ZM208.595 152.709C207.8 152.788 207.063 153.171 206.391 153.857C205.716 154.541 205.398 155.232 205.433 155.924C205.592 157.502 206.584 158.139 208.415 157.831C209.345 157.675 210.173 157.316 210.901 156.752C211.627 156.187 212.072 155.559 212.235 154.866C212.324 154.357 212.331 153.966 212.255 153.688C212.184 153.429 212.032 153.229 211.801 153.083C211.554 152.929 211.173 152.814 210.659 152.739L210.63 152.732L209.659 152.688C209.258 152.683 208.902 152.69 208.595 152.709ZM241.137 125.025C241.251 124.911 241.307 124.787 241.304 124.657C241.302 124.563 241.267 124.452 241.198 124.328C241.129 124.202 241.055 124.116 240.979 124.069L239.512 124.253C237.856 124.394 236.268 124.751 234.75 125.326C232.472 126.188 230.475 127.077 228.759 127.992C227.045 128.909 226.23 129.519 226.319 129.824C226.377 130.019 226.597 130.109 226.98 130.094C227.363 130.079 227.726 129.968 228.071 129.758L229.661 129.311C230.593 129.01 231.181 128.83 231.419 128.775C231.6 128.734 231.758 128.715 231.896 128.721C232.081 128.728 232.448 128.798 232.998 128.931C234.311 129.294 235.075 129.497 235.289 129.536C235.44 129.564 235.556 129.568 235.638 129.544C235.754 129.514 235.997 129.337 236.366 129.014L240.623 125.474L241.137 125.025ZM251.782 200.654C251.904 200.481 252.027 200.368 252.151 200.312C252.254 200.268 252.401 200.24 252.59 200.233L253.808 200.274C254.15 200.402 254.364 200.631 254.451 200.958C254.524 201.245 254.536 201.7 254.482 202.324C254.422 203.055 254.242 204.349 253.946 206.207L246.83 250.708C246.227 251.52 245.895 251.927 245.833 251.927C245.597 251.924 245.443 251.76 245.37 251.435C245.305 251.136 245.294 250.648 245.336 249.973C245.383 249.231 245.508 248.104 245.708 246.588L251.782 200.654ZM283.276 170.315C279.981 171.181 278.11 171.337 277.661 170.785C277.576 170.681 277.54 170.601 277.554 170.546C277.565 170.503 277.605 170.447 277.674 170.377L278.398 169.74C278.6 169.586 278.758 169.483 278.876 169.434L279.31 169.289L282.59 168.337C283.694 167.976 284.516 167.918 285.048 168.162C285.33 168.292 285.538 168.534 285.667 168.887C285.796 169.24 285.782 169.524 285.629 169.742L283.276 170.315ZM497.361 180.301C494.489 184.066 491.377 186.79 488.028 188.47C484.538 190.221 482.195 189.995 480.998 187.788C480.227 186.373 480.768 183.983 482.621 180.622C483.166 179.694 483.974 178.704 485.05 177.654C486.123 176.605 487.178 175.771 488.215 175.153C489.233 174.546 490.204 174.11 491.125 173.843C491.965 173.599 492.929 173.445 494.017 173.385C495.211 173.317 496.816 173.347 498.833 173.475L502.544 173.708L501.398 175.01L497.361 180.301ZM550.5 175.459C549.625 175.812 548.285 176.305 546.477 176.943L540.466 179.063L545.858 173.614C546.232 173.257 546.548 172.979 546.806 172.784C547.174 172.511 548.115 171.931 549.632 171.05C551.415 170.016 553 169.421 554.385 169.272C555.447 169.158 556.522 169.107 557.611 169.12L557.573 169.25L558.41 169.355L554.394 173.347C553.695 173.849 553.045 174.257 552.441 174.576C551.914 174.856 551.266 175.151 550.5 175.459ZM275.112 283.299L275.423 283.307C276.527 283.282 277.946 282.837 279.678 281.969C281.668 280.973 283.017 280.015 283.73 279.093C283.928 278.837 284.048 278.617 284.086 278.437C284.42 276.866 284.885 275.495 285.48 274.33L275.054 274.751L275.112 283.299ZM331.098 285.606L332.416 284.543L331.915 283.335C331.104 280.8 331.095 278.461 331.883 276.316L324.919 275.572L324.042 288.712L324.679 288.736C325.084 288.689 325.848 288.406 326.97 287.891C328.33 287.269 329.706 286.506 331.098 285.606ZM169.836 173.267L168.262 175.313C166.011 178.413 163.801 182.129 161.63 186.461L160.477 188.763C164.159 186.801 168.209 184.885 172.628 183.019L172.421 182.702C171.364 181.105 170.691 179.284 170.4 177.238L169.836 173.267Z" fill="white"/>
</svg>
